<svg width="30" height="30" viewBox="0 0 15 14" fill="none" xmlns="http://www.w3.org/2000/svg">
<path d="M15 5.82409C15 9.57674 11.8397 11.6482 7.94118 11.6482C4.0427 11.6482 0.882355 9.57674 0.882355 5.82409C0.882355 2.07144 4.0427 0 7.94118 0C11.8397 0 15 2.07144 15 5.82409Z" fill="#504949"/>
<path d="M1.13934 13.0308L2.82398 8.96936L4.79738 10.648L1.13934 13.0308Z" fill="#504949"/>
<path d="M5.29412 5.82409C5.29412 6.36018 4.89908 6.79477 4.41177 6.79477C3.92446 6.79477 3.52942 6.36018 3.52942 5.82409C3.52942 5.288 3.92446 4.85341 4.41177 4.85341C4.89908 4.85341 5.29412 5.288 5.29412 5.82409Z" fill="white"/>
<path d="M8.82353 5.82409C8.82353 6.36018 8.42849 6.79477 7.94118 6.79477C7.45387 6.79477 7.05882 6.36018 7.05882 5.82409C7.05882 5.288 7.45387 4.85341 7.94118 4.85341C8.42849 4.85341 8.82353 5.288 8.82353 5.82409Z" fill="white"/>
<path d="M12.3529 5.82409C12.3529 6.36018 11.9579 6.79477 11.4706 6.79477C10.9833 6.79477 10.5882 6.36018 10.5882 5.82409C10.5882 5.288 10.9833 4.85341 11.4706 4.85341C11.9579 4.85341 12.3529 5.288 12.3529 5.82409Z" fill="white"/>
</svg>
