<svg width="110" height="60" viewBox="0 0 110 60" fill="none" xmlns="http://www.w3.org/2000/svg">
<g filter="url(#filter0_d)">
<path d="M40.6025 38.2463C43.4036 40.0042 44.9626 45.3283 41.7321 50.1373C38.5017 54.9463 9.69025 59.4058 7.68971 57.5831C5.68904 55.7605 27.9976 47.0358 30.0984 43.52C33.8307 37.274 38.5017 37.3674 40.6025 38.2463Z" fill="#670C6F"/>
</g>
<path d="M59.1834 53.1043C56.4345 53.1043 54.2845 52.1063 52.7337 50.1107C51.191 48.1148 50.4196 45.3832 50.4196 41.9152C50.4196 39.712 50.7808 37.7753 51.5028 36.1056C52.225 34.426 53.2875 33.1169 54.6908 32.1785C56.0939 31.2397 57.7516 30.7705 59.6634 30.7705C61.8544 30.7705 63.7335 31.3386 65.3006 32.4747L64.2177 35.4686C62.7241 34.5 61.2265 34.0159 59.7249 34.0159C57.9033 34.0159 56.4713 34.7274 55.4292 36.1503C54.3871 37.5728 53.866 39.5093 53.866 41.9595C53.866 44.3901 54.3296 46.3116 55.257 47.7245C56.1842 49.1373 57.5421 49.8439 59.3311 49.8439C60.4799 49.8439 61.522 49.6266 62.4574 49.1917V44.153H58.6787L58.7035 40.9962H65.5961V51.4741C64.4801 52.0274 63.4216 52.4375 62.4206 52.7042C61.4277 52.971 60.3485 53.1043 59.1834 53.1043ZM72.4398 53.1043C71.1842 53.1043 70.1668 52.6894 69.3871 51.8593C68.6157 51.0197 68.2303 49.8142 68.2303 48.2432C68.2303 46.5538 68.6896 45.304 69.6087 44.4939C70.5278 43.6738 71.9144 43.1551 73.769 42.9378C74.0233 42.8983 74.2984 42.8588 74.5938 42.8191C74.8892 42.7796 75.2215 42.7402 75.5908 42.7007C75.9601 42.6609 76.2512 42.6267 76.4647 42.5969V41.7374C76.4647 40.7494 76.2759 40.0331 75.8983 39.5885C75.521 39.1338 74.9465 38.9068 74.1754 38.9068C73.0758 38.9068 71.7176 39.2771 70.101 40.0182C70.0929 39.9885 69.9576 39.539 69.6949 38.6694C69.4322 37.8002 69.2969 37.3555 69.2888 37.3358C70.8807 36.5157 72.6039 36.1056 74.4584 36.1056C76.28 36.1056 77.6052 36.5849 78.434 37.5431C79.2628 38.4916 79.6772 40.0331 79.6772 42.1671V52.7932H77.2893C77.281 52.7534 77.1907 52.4226 77.0186 51.8001C76.8461 51.1776 76.7599 50.8467 76.7599 50.8073C76.0871 51.5976 75.4267 52.1804 74.7783 52.5558C74.1383 52.9216 73.3589 53.1043 72.4398 53.1043ZM73.3137 50.3478C74.0604 50.3478 74.7085 50.1353 75.2583 49.7104C75.8164 49.2757 76.2144 48.7522 76.4524 48.1397V44.9977C76.4277 44.9977 76.2101 45.0174 75.8 45.0569C75.3979 45.0967 75.1804 45.1164 75.1476 45.1164C73.8429 45.2545 72.887 45.551 72.2797 46.0054C71.6725 46.46 71.3689 47.1912 71.3689 48.1989C71.3689 48.8906 71.5371 49.4239 71.8736 49.7993C72.2099 50.165 72.6901 50.3478 73.3137 50.3478ZM87.9608 53.1043C86.1965 53.1043 84.8098 52.3236 83.8005 50.7627C82.7912 49.2017 82.2865 47.1168 82.2865 44.5087C82.2865 41.9793 82.7872 39.949 83.7882 38.4175C84.7975 36.8763 86.1842 36.1056 87.9485 36.1056C89.8686 36.1056 91.2268 36.9257 92.0226 38.5659C91.9407 37.5977 91.8996 36.6638 91.8996 35.7648V30.5037L95.1245 30.2518V52.7932H92.3304L91.9735 50.5699C91.8341 50.8367 91.7027 51.0689 91.5794 51.2665C91.4647 51.4544 91.2923 51.6765 91.0627 51.9336C90.8328 52.1804 90.5825 52.3831 90.3117 52.5413C90.0493 52.6894 89.7128 52.8178 89.3024 52.9264C88.9003 53.0451 88.4531 53.1043 87.9608 53.1043ZM88.7239 50.155C90.8903 50.155 91.9898 48.3816 92.0226 44.8347C92.0226 42.8291 91.7438 41.3668 91.1857 40.448C90.6276 39.529 89.7947 39.0698 88.6871 39.0698C87.7188 39.0698 86.9435 39.539 86.3606 40.4775C85.7864 41.4062 85.499 42.7796 85.499 44.5977C85.499 46.4057 85.7864 47.784 86.3606 48.7325C86.9435 49.6809 87.7312 50.155 88.7239 50.155ZM102.005 53.1043C100.749 53.1043 99.732 52.6894 98.9525 51.8593C98.1812 51.0197 97.7955 49.8142 97.7955 48.2432C97.7955 46.5538 98.255 45.304 99.1739 44.4939C100.093 43.6738 101.48 43.1551 103.334 42.9378C103.589 42.8983 103.864 42.8588 104.159 42.8191C104.454 42.7796 104.787 42.7402 105.156 42.7007C105.525 42.6609 105.816 42.6267 106.03 42.5969V41.7374C106.03 40.7494 105.841 40.0331 105.464 39.5885C105.086 39.1338 104.512 38.9068 103.741 38.9068C102.641 38.9068 101.283 39.2771 99.6664 40.0182C99.6581 39.9885 99.5227 39.539 99.2601 38.6694C98.9977 37.8002 98.862 37.3555 98.854 37.3358C100.446 36.5157 102.169 36.1056 104.024 36.1056C105.845 36.1056 107.17 36.5849 107.999 37.5431C108.828 38.4916 109.242 40.0331 109.242 42.1671V52.7932H106.854C106.846 52.7534 106.756 52.4226 106.584 51.8001C106.411 51.1776 106.325 50.8467 106.325 50.8073C105.652 51.5976 104.992 52.1804 104.344 52.5558C103.703 52.9216 102.924 53.1043 102.005 53.1043ZM102.879 50.3478C103.626 50.3478 104.274 50.1353 104.824 49.7104C105.382 49.2757 105.78 48.7522 106.018 48.1397V44.9977C105.993 44.9977 105.776 45.0174 105.365 45.0569C104.963 45.0967 104.746 45.1164 104.713 45.1164C103.408 45.2545 102.452 45.551 101.845 46.0054C101.238 46.46 100.934 47.1912 100.934 48.1989C100.934 48.8906 101.102 49.4239 101.439 49.7993C101.775 50.165 102.255 50.3478 102.879 50.3478Z" fill="black"/>
<path d="M37.2371 31.8713C36.0249 32.6226 31.6665 26.4016 27.5024 17.9762C23.3382 9.55086 20.9452 2.1117 22.1575 1.36038C23.3697 0.609063 27.7281 6.83009 31.8922 15.2554C36.0563 23.6808 38.4493 31.1199 37.2371 31.8713Z" fill="#EB1313"/>
<g filter="url(#filter1_d)">
<path d="M33.4791 34.1757C32.7432 35.4807 26.0791 32.6014 18.5943 27.7446C11.1096 22.8877 5.63848 17.8925 6.37431 16.5874C7.11015 15.2824 13.7743 18.1617 21.259 23.0185C28.7438 27.8754 34.2149 32.8706 33.4791 34.1757Z" fill="#EAC91A"/>
</g>
<path d="M32.0136 36.8277C32.0883 38.3388 25.0127 39.994 16.2097 40.5245C7.40679 41.0551 0.210012 40.2602 0.135292 38.7491C0.0605731 37.238 7.13621 35.5829 15.9392 35.0523C24.7421 34.5217 31.9389 35.3166 32.0136 36.8277Z" fill="#00BA07"/>
<defs>
<filter id="filter0_d" x="6.56293" y="37.8147" width="37.9741" height="22.1853" filterUnits="userSpaceOnUse" color-interpolation-filters="sRGB">
<feFlood flood-opacity="0" result="BackgroundImageFix"/>
<feColorMatrix in="SourceAlpha" type="matrix" values="0 0 0 0 0 0 0 0 0 0 0 0 0 0 0 0 0 0 127 0"/>
<feOffset dy="1"/>
<feGaussianBlur stdDeviation="0.5"/>
<feColorMatrix type="matrix" values="0 0 0 0 0 0 0 0 0 0 0 0 0 0 0 0 0 0 0.25 0"/>
<feBlend mode="normal" in2="BackgroundImageFix" result="effect1_dropShadow"/>
<feBlend mode="normal" in="SourceGraphic" in2="effect1_dropShadow" result="shape"/>
</filter>
<filter id="filter1_d" x="5.30798" y="16.2732" width="29.2374" height="20.2167" filterUnits="userSpaceOnUse" color-interpolation-filters="sRGB">
<feFlood flood-opacity="0" result="BackgroundImageFix"/>
<feColorMatrix in="SourceAlpha" type="matrix" values="0 0 0 0 0 0 0 0 0 0 0 0 0 0 0 0 0 0 127 0"/>
<feOffset dy="1"/>
<feGaussianBlur stdDeviation="0.5"/>
<feColorMatrix type="matrix" values="0 0 0 0 0 0 0 0 0 0 0 0 0 0 0 0 0 0 0.06 0"/>
<feBlend mode="normal" in2="BackgroundImageFix" result="effect1_dropShadow"/>
<feBlend mode="normal" in="SourceGraphic" in2="effect1_dropShadow" result="shape"/>
</filter>
</defs>
</svg>
